<?xml version="1.0" encoding="utf-8"?>
<!-- Generator: Adobe Illustrator 18.1.1, SVG Export Plug-In . SVG Version: 6.00 Build 0)  -->
<svg version="1.1" id="Layer_1" xmlns="http://www.w3.org/2000/svg" xmlns:xlink="http://www.w3.org/1999/xlink" x="0px" y="0px"
	 viewBox="0 0 120 100" enable-background="new 0 0 120 100" xml:space="preserve">
<g>
	<path d="M106.7,67.5l-6.3,6.5H56.2C43,74,32.7,63.2,32.7,50s10.8-24,24-24c6.7,0,12.7,2.7,17.1,7.1l-4.1,4.3
		c-3.3-3.4-7.9-5.4-13-5.4c-10,0-18.2,8.1-18.2,18.2c0,10,7.6,17.5,17.7,17.5L106.7,67.5z"/>
	<rect x="69.6" y="57" width="42" height="5"/>
	<path d="M95.5,79.6l-6.4,6.5c0,0-12.9,0-33,0c-19.9,0-35.5-16.3-35.5-36.2c0-20,16.1-36.2,36.1-36.2c10.1,0,19.2,4.2,25.8,10.8
		l-4.2,4.2c-5.5-5.6-13.1-9.1-21.6-9.1c-16.7,0-30.2,13.6-30.2,30.3c0,16.7,13,29.6,29.7,29.6L95.5,79.6z"/>
	<path d="M56.2,98C29.6,98,9,76.4,9,49.8c0-26.6,21.6-48,48.2-48c13.3,0,25.3,5.4,34,14.1l-4,4.1c-7.7-7.6-18.3-12.4-30-12.4
		c-23.5,0-42.5,18.8-42.5,42.2c0,23,18.4,42.2,41.5,42.2h27l-5.8,6H56.2z"/>
	<g>
		<path d="M69.3,46.5c0-3,2.2-4.8,5-4.8c1.9,0,3.2,1,3.9,2.1l-1.7,0.9c-0.4-0.7-1.2-1.2-2.2-1.2c-1.7,0-2.9,1.3-2.9,3.1
			c0,1.8,1.2,3.1,2.9,3.1c0.8,0,1.6-0.4,2-0.7v-1.1h-2.5V46h4.4v3.6c-1,1.1-2.3,1.8-4,1.8C71.6,51.3,69.3,49.4,69.3,46.5z"/>
		<path d="M79.5,51.1v-9.3h2v9.3H79.5z"/>
		<path d="M82.4,49.8l1.1-1.5c0.7,0.7,1.7,1.3,3,1.3c1.1,0,1.6-0.5,1.6-1c0-0.7-0.9-0.9-1.9-1.1c-1.5-0.3-3.5-0.8-3.5-2.9
			c0-1.6,1.3-2.8,3.5-2.8c1.5,0,2.7,0.4,3.6,1.3l-1.1,1.5c-0.8-0.7-1.8-1-2.7-1c-0.9,0-1.3,0.4-1.3,0.9c0,0.6,0.9,0.8,1.9,1
			c1.5,0.4,3.5,0.8,3.5,2.9c0,1.7-1.2,3-3.7,3C84.5,51.3,83.2,50.7,82.4,49.8z"/>
		<path d="M99.1,51.1v-6.5l-2.6,6.5h-0.9L93,44.6v6.5h-2v-9.3h2.8l2.3,5.6l2.3-5.6h2.8v9.3H99.1z"/>
		<path d="M102.2,46.5c0-2.8,2.1-4.8,4.9-4.8c2.8,0,4.9,2,4.9,4.8c0,2.8-2.1,4.8-4.9,4.8C104.2,51.3,102.2,49.3,102.2,46.5z
			 M109.9,46.5c0-1.7-1.1-3.1-2.8-3.1c-1.7,0-2.8,1.3-2.8,3.1c0,1.7,1.1,3.1,2.8,3.1C108.8,49.5,109.9,48.2,109.9,46.5z"/>
	</g>
</g>
</svg>
