<?xml version="1.0" encoding="utf-8"?>
<!-- Generator: Adobe Illustrator 18.1.1, SVG Export Plug-In . SVG Version: 6.00 Build 0)  -->
<svg version="1.1" id="Layer_1" xmlns="http://www.w3.org/2000/svg" xmlns:xlink="http://www.w3.org/1999/xlink" x="0px" y="0px"
	 viewBox="0 0 150 150" enable-background="new 0 0 150 150" xml:space="preserve">
<g>
	<path fill="#FCA854" d="M141.2,99.8l-9,9.2H69c-19,0-33.6-15.4-33.6-34.4s15.4-34.4,34.4-34.4c9.5,0,18.2,3.9,24.4,10.2l-5.9,6.1
		c-4.7-4.8-11.3-7.8-18.6-7.8c-14.4,0-26,11.6-26,26c0,14.4,10.9,25,25.2,25L141.2,99.8z"/>
	<rect x="88" y="84" fill="#F97455" width="60" height="8"/>
	<path fill="#53C473" d="M125.2,117l-9.1,9.2c0,0-18.4,0-47.1,0c-28.4,0-50.8-23.2-50.8-51.8c0-28.6,23-51.7,51.6-51.7
		c14.5,0,27.5,5.9,36.9,15.5l-6,6c-7.9-8-18.8-13-30.9-13c-23.9,0-43.2,19.4-43.2,43.3C26.5,98.5,45,117,68.9,117L125.2,117z"/>
	<path fill="#26AEBC" d="M69,144c-38,0-67.6-31.2-67.6-69.2c0-38,30.8-68.9,68.9-68.9c19,0,36.1,7.7,48.6,20.1l-5.7,5.8
		C102.1,20.8,87,14,70.2,14C36.7,14,9.5,41,9.5,74.5c0,32.9,26.3,60.5,59.4,60.5h38.6l-8.2,9H69z"/>
</g>
</svg>
