<svg xmlns="http://www.w3.org/2000/svg" viewBox="0 0 22 22" width="24px" height="24px"><path d="M21.71,10.29,18.83,7.41a1,1,0,0,0-1.42,0A2,2,0,0,1,16,8a2,2,0,0,1-1.41-3.41,1,1,0,0,0,0-1.41L11.71.29a1,1,0,0,0-1.42,0L8.1,2.48A4,4,0,1,0,2.48,8.1L.29,10.29A1,1,0,0,0,0,11a1,1,0,0,0,.29.71l2.88,2.88a1,1,0,0,0,1.42,0A2,2,0,0,1,6,14a2,2,0,0,1,1.41,3.42,1,1,0,0,0-.29.71,1,1,0,0,0,.29.7l2.88,2.88a1,1,0,0,0,1.42,0l2.19-2.19A4,4,0,0,0,17,21a4,4,0,0,0,4-4,4,4,0,0,0-1.48-3.1l2.19-2.19A1,1,0,0,0,21.71,10.29Zm-4.56,3.14a1,1,0,0,0,.42,1.66A2,2,0,0,1,19,17a2,2,0,0,1-2,2,2,2,0,0,1-1.9-1.42,1,1,0,0,0-.72-.68,1,1,0,0,0-1,.26L11,19.58,9.45,18A4,4,0,0,0,4,12.55L2.41,11,4.85,8.56A1,1,0,0,0,4.43,6.9,2,2,0,1,1,6.9,4.42a1,1,0,0,0,.72.68,1,1,0,0,0,1-.26L11,2.41,12.55,4A4,4,0,0,0,18,9.44L19.59,11Z"/></svg>